{
  "accessors": [
    {
      "bufferView": 2,
      "componentType": 5126,
      "count": 7365,
      "max": [
        0.21745824813842773,
        0.6747891306877136,
        0.21745800971984863
      ],
      "min": [
        -0.21745800971984863,
        0.0,
        -0.21745800971984863
      ],
      "type": "VEC3"
    },
    {
      "bufferView": 2,
      "byteOffset": 88380,
      "componentType": 5126,
      "count": 7365,
      "type": "VEC3"
    },
    {
      "bufferView": 3,
      "componentType": 5126,
      "count": 7365,
      "type": "VEC4"
    },
    {
      "bufferView": 1,
      "componentType": 5126,
      "count": 7365,
      "type": "VEC2"
    },
    {
      "bufferView": 1,
      "byteOffset": 58920,
      "componentType": 5126,
      "count": 7365,
      "type": "VEC2"
    },
    {
      "bufferView": 0,
      "componentType": 5125,
      "count": 34416,
      "type": "SCALAR"
    }
  ],
  "asset": {
    "generator": "fab-model-conversion",
    "version": "2.0"
  },
  "bufferViews": [
    {
      "buffer": 0,
      "byteLength": 137664,
      "target": 34963
    },
    {
      "buffer": 0,
      "byteLength": 117840,
      "byteOffset": 137664,
      "byteStride": 8,
      "target": 34962
    },
    {
      "buffer": 0,
      "byteLength": 176760,
      "byteOffset": 255504,
      "byteStride": 12,
      "target": 34962
    },
    {
      "buffer": 0,
      "byteLength": 117840,
      "byteOffset": 432264,
      "byteStride": 16,
      "target": 34962
    }
  ],
  "buffers": [
    {
      "byteLength": 550104,
      "uri": "scene.bin"
    }
  ],
  "images": [
    {
      "uri": "textures/Vintage_Bar_Stool_BaseColor.jpeg"
    },
    {
      "uri": "textures/Vintage_Bar_Stool_ORM.jpeg"
    },
    {
      "uri": "textures/Vintage_Bar_Stool_Normal.png"
    }
  ],
  "materials": [
    {
      "doubleSided": true,
      "name": "Vintage_Bar_Stool",
      "normalTexture": {
        "index": 2
      },
      "pbrMetallicRoughness": {
        "baseColorTexture": {
          "index": 0
        },
        "metallicRoughnessTexture": {
          "index": 1
        }
      }
    }
  ],
  "meshes": [
    {
      "name": "Object_0",
      "primitives": [
        {
          "attributes": {
            "NORMAL": 1,
            "POSITION": 0,
            "TANGENT": 2,
            "TEXCOORD_0": 3,
            "TEXCOORD_1": 4
          },
          "indices": 5,
          "material": 0,
          "mode": 4
        }
      ]
    }
  ],
  "nodes": [
    {
      "children": [
        1
      ],
      "matrix": [
        1.0,
        0.0,
        0.0,
        0.0,
        0.0,
        2.220446049250313e-16,
        -1.0,
        0.0,
        0.0,
        1.0,
        2.220446049250313e-16,
        0.0,
        0.0,
        0.0,
        0.0,
        1.0
      ],
      "name": "FAB converted model"
    },
    {
      "children": [
        2
      ],
      "name": "root"
    },
    {
      "children": [
        3
      ],
      "matrix": [
        1.0,
        0.0,
        0.0,
        0.0,
        0.0,
        2.220446049250313e-16,
        1.0,
        0.0,
        0.0,
        -1.0,
        2.220446049250313e-16,
        0.0,
        0.0,
        0.0,
        0.0,
        1.0
      ],
      "name": "GLTF_SceneRootNode"
    },
    {
      "children": [
        4
      ],
      "name": "Vintage_Bar_Stool_0"
    },
    {
      "mesh": 0,
      "name": "Object_4"
    }
  ],
  "samplers": [
    {
      "magFilter": 9729,
      "minFilter": 9987,
      "wrapS": 10497,
      "wrapT": 10497
    }
  ],
  "scene": 0,
  "scenes": [
    {
      "name": "FAB converted",
      "nodes": [
        0
      ]
    }
  ],
  "textures": [
    {
      "sampler": 0,
      "source": 0
    },
    {
      "sampler": 0,
      "source": 1
    },
    {
      "sampler": 0,
      "source": 2
    }
  ]
}
