{
  "accessors": [
    {
      "bufferView": 2,
      "componentType": 5126,
      "count": 4734,
      "max": [
        1.4717425107955933,
        0.8705536723136902,
        3.513986825942993
      ],
      "min": [
        -0.8705536723136902,
        -0.8705536723136902,
        -0.2045097053050995
      ],
      "type": "VEC3"
    },
    {
      "bufferView": 2,
      "byteOffset": 56808,
      "componentType": 5126,
      "count": 4734,
      "type": "VEC3"
    },
    {
      "bufferView": 3,
      "componentType": 5126,
      "count": 4734,
      "type": "VEC4"
    },
    {
      "bufferView": 1,
      "componentType": 5126,
      "count": 4734,
      "type": "VEC2"
    },
    {
      "bufferView": 1,
      "byteOffset": 37872,
      "componentType": 5126,
      "count": 4734,
      "type": "VEC2"
    },
    {
      "bufferView": 1,
      "byteOffset": 75744,
      "componentType": 5126,
      "count": 4734,
      "type": "VEC2"
    },
    {
      "bufferView": 0,
      "componentType": 5125,
      "count": 15894,
      "type": "SCALAR"
    },
    {
      "bufferView": 2,
      "byteOffset": 113616,
      "componentType": 5126,
      "count": 1140,
      "max": [
        1.2665849924087524,
        1.2567546367645264,
        1.3047493696212769
      ],
      "min": [
        -1.266584873199463,
        -1.2567545175552368,
        -1.3047493696212769
      ],
      "type": "VEC3"
    },
    {
      "bufferView": 2,
      "byteOffset": 127296,
      "componentType": 5126,
      "count": 1140,
      "type": "VEC3"
    },
    {
      "bufferView": 3,
      "byteOffset": 75744,
      "componentType": 5126,
      "count": 1140,
      "type": "VEC4"
    },
    {
      "bufferView": 1,
      "byteOffset": 113616,
      "componentType": 5126,
      "count": 1140,
      "type": "VEC2"
    },
    {
      "bufferView": 1,
      "byteOffset": 122736,
      "componentType": 5126,
      "count": 1140,
      "type": "VEC2"
    },
    {
      "bufferView": 1,
      "byteOffset": 131856,
      "componentType": 5126,
      "count": 1140,
      "type": "VEC2"
    },
    {
      "bufferView": 0,
      "byteOffset": 63576,
      "componentType": 5125,
      "count": 4464,
      "type": "SCALAR"
    }
  ],
  "asset": {
    "generator": "fab-model-conversion",
    "version": "2.0"
  },
  "bufferViews": [
    {
      "buffer": 0,
      "byteLength": 81432,
      "target": 34963
    },
    {
      "buffer": 0,
      "byteLength": 140976,
      "byteOffset": 81432,
      "byteStride": 8,
      "target": 34962
    },
    {
      "buffer": 0,
      "byteLength": 140976,
      "byteOffset": 222408,
      "byteStride": 12,
      "target": 34962
    },
    {
      "buffer": 0,
      "byteLength": 93984,
      "byteOffset": 363384,
      "byteStride": 16,
      "target": 34962
    }
  ],
  "buffers": [
    {
      "byteLength": 457368,
      "uri": "scene.bin"
    }
  ],
  "images": [
    {
      "uri": "textures/Globe_Base_baseColor.png"
    },
    {
      "uri": "textures/Globe_Base_metallicRoughness.png"
    },
    {
      "uri": "textures/Globe_Base_normal.png"
    },
    {
      "uri": "textures/Globe.003_baseColor.png"
    },
    {
      "uri": "textures/Globe.003_metallicRoughness.png"
    },
    {
      "uri": "textures/Globe.003_normal.png"
    }
  ],
  "materials": [
    {
      "doubleSided": true,
      "name": "Globe_Base",
      "normalTexture": {
        "index": 2
      },
      "pbrMetallicRoughness": {
        "baseColorTexture": {
          "index": 0
        },
        "metallicRoughnessTexture": {
          "index": 1
        }
      }
    },
    {
      "doubleSided": true,
      "name": "Globe.003",
      "normalTexture": {
        "index": 5
      },
      "pbrMetallicRoughness": {
        "baseColorTexture": {
          "index": 3
        },
        "metallicFactor": 0.0,
        "metallicRoughnessTexture": {
          "index": 4
        }
      }
    }
  ],
  "meshes": [
    {
      "name": "Globe Base_low.001_Globe Base_0",
      "primitives": [
        {
          "attributes": {
            "NORMAL": 1,
            "POSITION": 0,
            "TANGENT": 2,
            "TEXCOORD_0": 3,
            "TEXCOORD_1": 4,
            "TEXCOORD_2": 5
          },
          "indices": 6,
          "material": 0,
          "mode": 4
        }
      ]
    },
    {
      "name": "Globe_low.001_Globe.003_0",
      "primitives": [
        {
          "attributes": {
            "NORMAL": 8,
            "POSITION": 7,
            "TANGENT": 9,
            "TEXCOORD_0": 10,
            "TEXCOORD_1": 11,
            "TEXCOORD_2": 12
          },
          "indices": 13,
          "material": 1,
          "mode": 4
        }
      ]
    }
  ],
  "nodes": [
    {
      "children": [
        1
      ],
      "matrix": [
        1.0,
        0.0,
        0.0,
        0.0,
        0.0,
        2.220446049250313e-16,
        -1.0,
        0.0,
        0.0,
        1.0,
        2.220446049250313e-16,
        0.0,
        0.0,
        0.0,
        0.0,
        1.0
      ],
      "name": "Sketchfab_model"
    },
    {
      "children": [
        2
      ],
      "matrix": [
        0.009999999776482582,
        0.0,
        0.0,
        0.0,
        0.0,
        0.0,
        0.009999999776482582,
        0.0,
        0.0,
        -0.009999999776482582,
        0.0,
        0.0,
        0.0,
        0.0,
        0.0,
        1.0
      ],
      "name": "d6929d4cb4fe43afb4fc6c1261f2f75f.fbx"
    },
    {
      "children": [
        3,
        5
      ],
      "name": "RootNode"
    },
    {
      "children": [
        4
      ],
      "matrix": [
        100.0,
        0.0,
        0.0,
        0.0,
        0.0,
        -1.629206793918314e-05,
        -99.99999999999868,
        0.0,
        0.0,
        99.99999999999868,
        -1.629206793918314e-05,
        0.0,
        567.6871337890625,
        -207.5483856201172,
        2.877461895423039e-07,
        1.0
      ],
      "name": "Globe Base_low.001"
    },
    {
      "mesh": 0,
      "name": "Globe Base_low.001_Globe Base_0"
    },
    {
      "children": [
        6
      ],
      "matrix": [
        91.16962645157297,
        4.2445463322787935,
        40.866668141564354,
        0.0,
        40.85392657805284,
        -19.933372689720485,
        -89.070855706947,
        0.0,
        4.365451194433245,
        97.90119755342573,
        -19.907243743776483,
        0.0,
        564.6112670898438,
        4.648044586181641,
        7.152984835556708e-06,
        1.0
      ],
      "name": "Globe_low.001"
    },
    {
      "mesh": 1,
      "name": "Globe_low.001_Globe.003_0"
    }
  ],
  "samplers": [
    {
      "magFilter": 9729,
      "minFilter": 9987,
      "wrapS": 10497,
      "wrapT": 10497
    }
  ],
  "scene": 0,
  "scenes": [
    {
      "name": "Sketchfab_Scene",
      "nodes": [
        0
      ]
    }
  ],
  "textures": [
    {
      "sampler": 0,
      "source": 0
    },
    {
      "sampler": 0,
      "source": 1
    },
    {
      "sampler": 0,
      "source": 2
    },
    {
      "sampler": 0,
      "source": 3
    },
    {
      "sampler": 0,
      "source": 4
    },
    {
      "sampler": 0,
      "source": 5
    }
  ]
}
