{
  "accessors": [
    {
      "bufferView": 2,
      "componentType": 5126,
      "count": 384,
      "max": [
        0.75,
        0.75,
        0.75
      ],
      "min": [
        -0.75,
        -0.75,
        -0.75
      ],
      "type": "VEC3"
    },
    {
      "bufferView": 2,
      "byteOffset": 4608,
      "componentType": 5126,
      "count": 384,
      "type": "VEC3"
    },
    {
      "bufferView": 3,
      "componentType": 5126,
      "count": 384,
      "type": "VEC4"
    },
    {
      "bufferView": 1,
      "componentType": 5126,
      "count": 384,
      "type": "VEC2"
    },
    {
      "bufferView": 1,
      "byteOffset": 3072,
      "componentType": 5126,
      "count": 384,
      "type": "VEC2"
    },
    {
      "bufferView": 0,
      "componentType": 5125,
      "count": 564,
      "type": "SCALAR"
    },
    {
      "bufferView": 2,
      "byteOffset": 9216,
      "componentType": 5126,
      "count": 295,
      "max": [
        0.5647221207618713,
        0.75,
        0.5647221207618713
      ],
      "min": [
        -0.5647221207618713,
        -0.75,
        -0.5647221207618713
      ],
      "type": "VEC3"
    },
    {
      "bufferView": 2,
      "byteOffset": 12756,
      "componentType": 5126,
      "count": 295,
      "type": "VEC3"
    },
    {
      "bufferView": 3,
      "byteOffset": 6144,
      "componentType": 5126,
      "count": 295,
      "type": "VEC4"
    },
    {
      "bufferView": 1,
      "byteOffset": 6144,
      "componentType": 5126,
      "count": 295,
      "type": "VEC2"
    },
    {
      "bufferView": 1,
      "byteOffset": 8504,
      "componentType": 5126,
      "count": 295,
      "type": "VEC2"
    },
    {
      "bufferView": 0,
      "byteOffset": 2256,
      "componentType": 5125,
      "count": 417,
      "type": "SCALAR"
    },
    {
      "bufferView": 2,
      "byteOffset": 16296,
      "componentType": 5126,
      "count": 296,
      "max": [
        0.5647221207618713,
        0.75,
        0.5647221207618713
      ],
      "min": [
        -0.5647221803665161,
        -0.7500000596046448,
        -0.5647221207618713
      ],
      "type": "VEC3"
    },
    {
      "bufferView": 2,
      "byteOffset": 19848,
      "componentType": 5126,
      "count": 296,
      "type": "VEC3"
    },
    {
      "bufferView": 3,
      "byteOffset": 10864,
      "componentType": 5126,
      "count": 296,
      "type": "VEC4"
    },
    {
      "bufferView": 1,
      "byteOffset": 10864,
      "componentType": 5126,
      "count": 296,
      "type": "VEC2"
    },
    {
      "bufferView": 1,
      "byteOffset": 13232,
      "componentType": 5126,
      "count": 296,
      "type": "VEC2"
    },
    {
      "bufferView": 0,
      "byteOffset": 3924,
      "componentType": 5125,
      "count": 420,
      "type": "SCALAR"
    },
    {
      "bufferView": 2,
      "byteOffset": 23400,
      "componentType": 5126,
      "count": 384,
      "max": [
        0.75,
        0.75,
        0.75
      ],
      "min": [
        -0.75,
        -0.75,
        -0.75
      ],
      "type": "VEC3"
    },
    {
      "bufferView": 2,
      "byteOffset": 28008,
      "componentType": 5126,
      "count": 384,
      "type": "VEC3"
    },
    {
      "bufferView": 3,
      "byteOffset": 15600,
      "componentType": 5126,
      "count": 384,
      "type": "VEC4"
    },
    {
      "bufferView": 1,
      "byteOffset": 15600,
      "componentType": 5126,
      "count": 384,
      "type": "VEC2"
    },
    {
      "bufferView": 1,
      "byteOffset": 18672,
      "componentType": 5126,
      "count": 384,
      "type": "VEC2"
    },
    {
      "bufferView": 0,
      "byteOffset": 5604,
      "componentType": 5125,
      "count": 564,
      "type": "SCALAR"
    },
    {
      "bufferView": 2,
      "byteOffset": 32616,
      "componentType": 5126,
      "count": 295,
      "max": [
        0.5647221207618713,
        0.75,
        0.5647221207618713
      ],
      "min": [
        -0.5647221207618713,
        -0.75,
        -0.5647221207618713
      ],
      "type": "VEC3"
    },
    {
      "bufferView": 2,
      "byteOffset": 36156,
      "componentType": 5126,
      "count": 295,
      "type": "VEC3"
    },
    {
      "bufferView": 3,
      "byteOffset": 21744,
      "componentType": 5126,
      "count": 295,
      "type": "VEC4"
    },
    {
      "bufferView": 1,
      "byteOffset": 21744,
      "componentType": 5126,
      "count": 295,
      "type": "VEC2"
    },
    {
      "bufferView": 1,
      "byteOffset": 24104,
      "componentType": 5126,
      "count": 295,
      "type": "VEC2"
    },
    {
      "bufferView": 0,
      "byteOffset": 7860,
      "componentType": 5125,
      "count": 417,
      "type": "SCALAR"
    },
    {
      "bufferView": 2,
      "byteOffset": 39696,
      "componentType": 5126,
      "count": 296,
      "max": [
        0.5647221207618713,
        0.75,
        0.5647221207618713
      ],
      "min": [
        -0.5647221803665161,
        -0.7500000596046448,
        -0.5647221207618713
      ],
      "type": "VEC3"
    },
    {
      "bufferView": 2,
      "byteOffset": 43248,
      "componentType": 5126,
      "count": 296,
      "type": "VEC3"
    },
    {
      "bufferView": 3,
      "byteOffset": 26464,
      "componentType": 5126,
      "count": 296,
      "type": "VEC4"
    },
    {
      "bufferView": 1,
      "byteOffset": 26464,
      "componentType": 5126,
      "count": 296,
      "type": "VEC2"
    },
    {
      "bufferView": 1,
      "byteOffset": 28832,
      "componentType": 5126,
      "count": 296,
      "type": "VEC2"
    },
    {
      "bufferView": 0,
      "byteOffset": 9528,
      "componentType": 5125,
      "count": 420,
      "type": "SCALAR"
    },
    {
      "bufferView": 2,
      "byteOffset": 46800,
      "componentType": 5126,
      "count": 384,
      "max": [
        0.75,
        0.75,
        0.75
      ],
      "min": [
        -0.75,
        -0.75,
        -0.75
      ],
      "type": "VEC3"
    },
    {
      "bufferView": 2,
      "byteOffset": 51408,
      "componentType": 5126,
      "count": 384,
      "type": "VEC3"
    },
    {
      "bufferView": 3,
      "byteOffset": 31200,
      "componentType": 5126,
      "count": 384,
      "type": "VEC4"
    },
    {
      "bufferView": 1,
      "byteOffset": 31200,
      "componentType": 5126,
      "count": 384,
      "type": "VEC2"
    },
    {
      "bufferView": 1,
      "byteOffset": 34272,
      "componentType": 5126,
      "count": 384,
      "type": "VEC2"
    },
    {
      "bufferView": 0,
      "byteOffset": 11208,
      "componentType": 5125,
      "count": 564,
      "type": "SCALAR"
    },
    {
      "bufferView": 2,
      "byteOffset": 56016,
      "componentType": 5126,
      "count": 295,
      "max": [
        0.5647221207618713,
        0.75,
        0.5647221207618713
      ],
      "min": [
        -0.5647221207618713,
        -0.75,
        -0.5647221207618713
      ],
      "type": "VEC3"
    },
    {
      "bufferView": 2,
      "byteOffset": 59556,
      "componentType": 5126,
      "count": 295,
      "type": "VEC3"
    },
    {
      "bufferView": 3,
      "byteOffset": 37344,
      "componentType": 5126,
      "count": 295,
      "type": "VEC4"
    },
    {
      "bufferView": 1,
      "byteOffset": 37344,
      "componentType": 5126,
      "count": 295,
      "type": "VEC2"
    },
    {
      "bufferView": 1,
      "byteOffset": 39704,
      "componentType": 5126,
      "count": 295,
      "type": "VEC2"
    },
    {
      "bufferView": 0,
      "byteOffset": 13464,
      "componentType": 5125,
      "count": 417,
      "type": "SCALAR"
    },
    {
      "bufferView": 2,
      "byteOffset": 63096,
      "componentType": 5126,
      "count": 296,
      "max": [
        0.5647221207618713,
        0.75,
        0.5647221207618713
      ],
      "min": [
        -0.5647221803665161,
        -0.7500000596046448,
        -0.5647221207618713
      ],
      "type": "VEC3"
    },
    {
      "bufferView": 2,
      "byteOffset": 66648,
      "componentType": 5126,
      "count": 296,
      "type": "VEC3"
    },
    {
      "bufferView": 3,
      "byteOffset": 42064,
      "componentType": 5126,
      "count": 296,
      "type": "VEC4"
    },
    {
      "bufferView": 1,
      "byteOffset": 42064,
      "componentType": 5126,
      "count": 296,
      "type": "VEC2"
    },
    {
      "bufferView": 1,
      "byteOffset": 44432,
      "componentType": 5126,
      "count": 296,
      "type": "VEC2"
    },
    {
      "bufferView": 0,
      "byteOffset": 15132,
      "componentType": 5125,
      "count": 420,
      "type": "SCALAR"
    },
    {
      "bufferView": 2,
      "byteOffset": 70200,
      "componentType": 5126,
      "count": 384,
      "max": [
        0.75,
        0.75,
        0.75
      ],
      "min": [
        -0.75,
        -0.75,
        -0.75
      ],
      "type": "VEC3"
    },
    {
      "bufferView": 2,
      "byteOffset": 74808,
      "componentType": 5126,
      "count": 384,
      "type": "VEC3"
    },
    {
      "bufferView": 3,
      "byteOffset": 46800,
      "componentType": 5126,
      "count": 384,
      "type": "VEC4"
    },
    {
      "bufferView": 1,
      "byteOffset": 46800,
      "componentType": 5126,
      "count": 384,
      "type": "VEC2"
    },
    {
      "bufferView": 1,
      "byteOffset": 49872,
      "componentType": 5126,
      "count": 384,
      "type": "VEC2"
    },
    {
      "bufferView": 0,
      "byteOffset": 16812,
      "componentType": 5125,
      "count": 564,
      "type": "SCALAR"
    },
    {
      "bufferView": 2,
      "byteOffset": 79416,
      "componentType": 5126,
      "count": 295,
      "max": [
        0.5647221207618713,
        0.75,
        0.5647221207618713
      ],
      "min": [
        -0.5647221207618713,
        -0.75,
        -0.5647221207618713
      ],
      "type": "VEC3"
    },
    {
      "bufferView": 2,
      "byteOffset": 82956,
      "componentType": 5126,
      "count": 295,
      "type": "VEC3"
    },
    {
      "bufferView": 3,
      "byteOffset": 52944,
      "componentType": 5126,
      "count": 295,
      "type": "VEC4"
    },
    {
      "bufferView": 1,
      "byteOffset": 52944,
      "componentType": 5126,
      "count": 295,
      "type": "VEC2"
    },
    {
      "bufferView": 1,
      "byteOffset": 55304,
      "componentType": 5126,
      "count": 295,
      "type": "VEC2"
    },
    {
      "bufferView": 0,
      "byteOffset": 19068,
      "componentType": 5125,
      "count": 417,
      "type": "SCALAR"
    },
    {
      "bufferView": 2,
      "byteOffset": 86496,
      "componentType": 5126,
      "count": 296,
      "max": [
        0.5647221207618713,
        0.75,
        0.5647221207618713
      ],
      "min": [
        -0.5647221803665161,
        -0.7500000596046448,
        -0.5647221207618713
      ],
      "type": "VEC3"
    },
    {
      "bufferView": 2,
      "byteOffset": 90048,
      "componentType": 5126,
      "count": 296,
      "type": "VEC3"
    },
    {
      "bufferView": 3,
      "byteOffset": 57664,
      "componentType": 5126,
      "count": 296,
      "type": "VEC4"
    },
    {
      "bufferView": 1,
      "byteOffset": 57664,
      "componentType": 5126,
      "count": 296,
      "type": "VEC2"
    },
    {
      "bufferView": 1,
      "byteOffset": 60032,
      "componentType": 5126,
      "count": 296,
      "type": "VEC2"
    },
    {
      "bufferView": 0,
      "byteOffset": 20736,
      "componentType": 5125,
      "count": 420,
      "type": "SCALAR"
    }
  ],
  "asset": {
    "generator": "fab-model-conversion",
    "version": "2.0"
  },
  "bufferViews": [
    {
      "buffer": 0,
      "byteLength": 22416,
      "target": 34963
    },
    {
      "buffer": 0,
      "byteLength": 62400,
      "byteOffset": 22416,
      "byteStride": 8,
      "target": 34962
    },
    {
      "buffer": 0,
      "byteLength": 93600,
      "byteOffset": 84816,
      "byteStride": 12,
      "target": 34962
    },
    {
      "buffer": 0,
      "byteLength": 62400,
      "byteOffset": 178416,
      "byteStride": 16,
      "target": 34962
    }
  ],
  "buffers": [
    {
      "byteLength": 240816,
      "uri": "scene.bin"
    }
  ],
  "images": [
    {
      "uri": "textures/Crate_baseColor.png"
    },
    {
      "uri": "textures/Crate_metallicRoughness.png"
    },
    {
      "uri": "textures/Crate_normal.png"
    }
  ],
  "materials": [
    {
      "doubleSided": true,
      "name": "Crate",
      "normalTexture": {
        "index": 2,
        "texCoord": 1
      },
      "pbrMetallicRoughness": {
        "baseColorTexture": {
          "index": 0
        },
        "metallicRoughnessTexture": {
          "index": 1
        }
      }
    }
  ],
  "meshes": [
    {
      "name": "Crate_Main_Crate_0",
      "primitives": [
        {
          "attributes": {
            "NORMAL": 1,
            "POSITION": 0,
            "TANGENT": 2,
            "TEXCOORD_0": 3,
            "TEXCOORD_1": 4
          },
          "indices": 5,
          "material": 0,
          "mode": 4
        }
      ]
    },
    {
      "name": "Plank_Crate_0",
      "primitives": [
        {
          "attributes": {
            "NORMAL": 7,
            "POSITION": 6,
            "TANGENT": 8,
            "TEXCOORD_0": 9,
            "TEXCOORD_1": 10
          },
          "indices": 11,
          "material": 0,
          "mode": 4
        }
      ]
    },
    {
      "name": "Plank.001_Crate_0",
      "primitives": [
        {
          "attributes": {
            "NORMAL": 13,
            "POSITION": 12,
            "TANGENT": 14,
            "TEXCOORD_0": 15,
            "TEXCOORD_1": 16
          },
          "indices": 17,
          "material": 0,
          "mode": 4
        }
      ]
    },
    {
      "name": "Crate_Main.001_Crate_0",
      "primitives": [
        {
          "attributes": {
            "NORMAL": 19,
            "POSITION": 18,
            "TANGENT": 20,
            "TEXCOORD_0": 21,
            "TEXCOORD_1": 22
          },
          "indices": 23,
          "material": 0,
          "mode": 4
        }
      ]
    },
    {
      "name": "Plank.002_Crate_0",
      "primitives": [
        {
          "attributes": {
            "NORMAL": 25,
            "POSITION": 24,
            "TANGENT": 26,
            "TEXCOORD_0": 27,
            "TEXCOORD_1": 28
          },
          "indices": 29,
          "material": 0,
          "mode": 4
        }
      ]
    },
    {
      "name": "Plank.003_Crate_0",
      "primitives": [
        {
          "attributes": {
            "NORMAL": 31,
            "POSITION": 30,
            "TANGENT": 32,
            "TEXCOORD_0": 33,
            "TEXCOORD_1": 34
          },
          "indices": 35,
          "material": 0,
          "mode": 4
        }
      ]
    },
    {
      "name": "Crate_Main.002_Crate_0",
      "primitives": [
        {
          "attributes": {
            "NORMAL": 37,
            "POSITION": 36,
            "TANGENT": 38,
            "TEXCOORD_0": 39,
            "TEXCOORD_1": 40
          },
          "indices": 41,
          "material": 0,
          "mode": 4
        }
      ]
    },
    {
      "name": "Plank.004_Crate_0",
      "primitives": [
        {
          "attributes": {
            "NORMAL": 43,
            "POSITION": 42,
            "TANGENT": 44,
            "TEXCOORD_0": 45,
            "TEXCOORD_1": 46
          },
          "indices": 47,
          "material": 0,
          "mode": 4
        }
      ]
    },
    {
      "name": "Plank.005_Crate_0",
      "primitives": [
        {
          "attributes": {
            "NORMAL": 49,
            "POSITION": 48,
            "TANGENT": 50,
            "TEXCOORD_0": 51,
            "TEXCOORD_1": 52
          },
          "indices": 53,
          "material": 0,
          "mode": 4
        }
      ]
    },
    {
      "name": "Crate_Main.003_Crate_0",
      "primitives": [
        {
          "attributes": {
            "NORMAL": 55,
            "POSITION": 54,
            "TANGENT": 56,
            "TEXCOORD_0": 57,
            "TEXCOORD_1": 58
          },
          "indices": 59,
          "material": 0,
          "mode": 4
        }
      ]
    },
    {
      "name": "Plank.006_Crate_0",
      "primitives": [
        {
          "attributes": {
            "NORMAL": 61,
            "POSITION": 60,
            "TANGENT": 62,
            "TEXCOORD_0": 63,
            "TEXCOORD_1": 64
          },
          "indices": 65,
          "material": 0,
          "mode": 4
        }
      ]
    },
    {
      "name": "Plank.007_Crate_0",
      "primitives": [
        {
          "attributes": {
            "NORMAL": 67,
            "POSITION": 66,
            "TANGENT": 68,
            "TEXCOORD_0": 69,
            "TEXCOORD_1": 70
          },
          "indices": 71,
          "material": 0,
          "mode": 4
        }
      ]
    }
  ],
  "nodes": [
    {
      "children": [
        1
      ],
      "matrix": [
        1.0,
        0.0,
        0.0,
        0.0,
        0.0,
        2.220446049250313e-16,
        -1.0,
        0.0,
        0.0,
        1.0,
        2.220446049250313e-16,
        0.0,
        0.0,
        0.0,
        0.0,
        1.0
      ],
      "name": "Sketchfab_model"
    },
    {
      "children": [
        2
      ],
      "matrix": [
        0.009999999776482582,
        0.0,
        0.0,
        0.0,
        0.0,
        0.0,
        0.009999999776482582,
        0.0,
        0.0,
        -0.009999999776482582,
        0.0,
        0.0,
        0.0,
        0.0,
        0.0,
        1.0
      ],
      "name": "Pile_Of_Crates-Basic_001.fbx"
    },
    {
      "children": [
        3,
        9,
        15,
        21
      ],
      "name": "RootNode"
    },
    {
      "children": [
        4,
        5,
        7
      ],
      "matrix": [
        95.3901991307113,
        -1.2797383708296195e-06,
        30.01182949777046,
        0.0,
        30.01182949777047,
        7.147156444453628e-06,
        -95.39019913071103,
        0.0,
        -9.242474258153166e-07,
        99.99999999999973,
        7.201759655295348e-06,
        0.0,
        0.0,
        75.0,
        111.63563537597656,
        1.0
      ],
      "name": "Crate_Main"
    },
    {
      "mesh": 0,
      "name": "Crate_Main_Crate_0"
    },
    {
      "children": [
        6
      ],
      "matrix": [
        1.0,
        0.0,
        6.617444900424223e-24,
        0.0,
        8.75811540203011e-47,
        1.0,
        -1.3234889800848446e-23,
        0.0,
        -6.617444900424223e-24,
        1.3234889800848446e-23,
        1.0,
        0.0,
        0.0,
        0.0,
        0.0,
        1.0
      ],
      "name": "Plank"
    },
    {
      "mesh": 1,
      "name": "Plank_Crate_0"
    },
    {
      "children": [
        8
      ],
      "matrix": [
        -1.6292003847710278e-07,
        0.9999960660934316,
        -2.646977960169689e-23,
        0.0,
        -0.9999999999999868,
        -1.6292067939183141e-07,
        -3.308722450212114e-24,
        0.0,
        -3.3087267627035095e-24,
        2.6469883192686354e-23,
        1.0,
        0.0,
        0.0,
        0.0,
        0.0,
        1.0
      ],
      "name": "Plank.001"
    },
    {
      "mesh": 2,
      "name": "Plank.001_Crate_0"
    },
    {
      "children": [
        10,
        11,
        13
      ],
      "matrix": [
        79.90440527679243,
        5.551115123125783e-15,
        -60.12724854308657,
        0.0,
        -60.12724854308651,
        -4.371138984105016e-06,
        -79.90440527679235,
        0.0,
        -2.6282456044857128e-06,
        99.99999999999989,
        -3.4927325920364183e-06,
        0.0,
        -85.5451431274414,
        75.0,
        -55.18210983276367,
        1.0
      ],
      "name": "Crate_Main.001"
    },
    {
      "mesh": 3,
      "name": "Crate_Main.001_Crate_0"
    },
    {
      "children": [
        12
      ],
      "matrix": [
        1.0,
        -5.551115123125784e-17,
        3.3087224502121114e-24,
        0.0,
        5.551115123125784e-17,
        1.0,
        1.3234889800848443e-23,
        0.0,
        -3.308722450212113e-24,
        -1.3234889800848443e-23,
        1.0,
        0.0,
        0.0,
        0.0,
        0.0,
        1.0
      ],
      "name": "Plank.002"
    },
    {
      "mesh": 4,
      "name": "Plank.002_Crate_0"
    },
    {
      "children": [
        14
      ],
      "matrix": [
        -1.6292003847710278e-07,
        0.9999960660934316,
        6.617444900424221e-24,
        0.0,
        -0.9999999999999868,
        -1.6292067939183141e-07,
        -6.617444900424223e-24,
        0.0,
        -6.617443822301274e-24,
        -6.617472011055037e-24,
        1.0,
        0.0,
        0.0,
        0.0,
        0.0,
        1.0
      ],
      "name": "Plank.003"
    },
    {
      "mesh": 5,
      "name": "Plank.003_Crate_0"
    },
    {
      "children": [
        16,
        17,
        19
      ],
      "matrix": [
        -17.40460347922015,
        -5.416989024009666e-06,
        -98.47375171958814,
        0.0,
        -98.4737517195772,
        4.842650505043622e-05,
        17.404603479215545,
        0.0,
        4.674459089804017e-05,
        99.99999999998812,
        -1.3762753514612314e-05,
        0.0,
        96.59285736083984,
        75.0,
        -43.368743896484375,
        1.0
      ],
      "name": "Crate_Main.002"
    },
    {
      "mesh": 6,
      "name": "Crate_Main.002_Crate_0"
    },
    {
      "children": [
        18
      ],
      "matrix": [
        1.0,
        5.551115123125784e-17,
        0.0,
        0.0,
        -5.551115123125784e-17,
        1.0,
        -3.308722450212111e-23,
        0.0,
        -1.836709923159825e-39,
        3.308722450212111e-23,
        1.0,
        0.0,
        0.0,
        0.0,
        0.0,
        1.0
      ],
      "name": "Plank.004"
    },
    {
      "mesh": 7,
      "name": "Plank.004_Crate_0"
    },
    {
      "children": [
        20
      ],
      "matrix": [
        -1.6292003847710278e-07,
        0.9999960660934316,
        -4.963083675318166e-23,
        0.0,
        -0.9999999999999868,
        -1.6292067939183141e-07,
        0.0,
        0.0,
        -8.085921456633353e-30,
        4.963103199702312e-23,
        1.0,
        0.0,
        0.0,
        0.0,
        0.0,
        1.0
      ],
      "name": "Plank.005"
    },
    {
      "mesh": 8,
      "name": "Plank.005_Crate_0"
    },
    {
      "children": [
        22,
        23,
        25
      ],
      "matrix": [
        18.802042695072885,
        5.551115123125783e-15,
        98.21651180169584,
        0.0,
        98.21651180169194,
        -2.8212996916465727e-05,
        -18.802042695072135,
        0.0,
        2.77098214485072e-05,
        99.99999999999602,
        -5.304619743462524e-06,
        0.0,
        0.0,
        225.0,
        0.0,
        1.0
      ],
      "name": "Crate_Main.003"
    },
    {
      "mesh": 9,
      "name": "Crate_Main.003_Crate_0"
    },
    {
      "children": [
        24
      ],
      "matrix": [
        1.0,
        -5.551115123125784e-17,
        -6.617444900424223e-24,
        0.0,
        5.551115123125784e-17,
        1.0,
        -3.308722450212111e-24,
        0.0,
        6.617444900424223e-24,
        3.3087224502121103e-24,
        1.0,
        0.0,
        0.0,
        0.0,
        0.0,
        1.0
      ],
      "name": "Plank.006"
    },
    {
      "mesh": 10,
      "name": "Plank.006_Crate_0"
    },
    {
      "children": [
        26
      ],
      "matrix": [
        -1.6292003847710278e-07,
        0.9999960660934316,
        0.0,
        0.0,
        -0.9999999999999868,
        -1.6292067939183141e-07,
        -6.617444900424224e-24,
        0.0,
        -6.6174449004241354e-24,
        -1.0781186197498083e-30,
        1.0,
        0.0,
        0.0,
        0.0,
        0.0,
        1.0
      ],
      "name": "Plank.007"
    },
    {
      "mesh": 11,
      "name": "Plank.007_Crate_0"
    }
  ],
  "samplers": [
    {
      "magFilter": 9729,
      "minFilter": 9987,
      "wrapS": 10497,
      "wrapT": 10497
    }
  ],
  "scene": 0,
  "scenes": [
    {
      "name": "Sketchfab_Scene",
      "nodes": [
        0
      ]
    }
  ],
  "textures": [
    {
      "sampler": 0,
      "source": 0
    },
    {
      "sampler": 0,
      "source": 1
    },
    {
      "sampler": 0,
      "source": 2
    }
  ]
}
